<?xml version="1.0" standalone="no"?>
<!DOCTYPE svg PUBLIC "-//W3C//DTD SVG 20010904//EN"
 "http://www.w3.org/TR/2001/REC-SVG-20010904/DTD/svg10.dtd">
<svg version="1.0" xmlns="http://www.w3.org/2000/svg"
 width="256.000000pt" height="256.000000pt" viewBox="0 0 256.000000 256.000000"
 preserveAspectRatio="xMidYMid meet">
<metadata>
Created by potrace 1.14, written by Peter Selinger 2001-2017
</metadata>
<g transform="translate(0.000000,256.000000) scale(0.100000,-0.100000)"
fill="#000000" stroke="none">
<path d="M294 2520 c-57 -23 -54 42 -54 -1147 0 -637 4 -1102 9 -1116 5 -13
16 -30 24 -38 12 -13 11 -16 -9 -26 -13 -6 -22 -7 -19 -3 3 5 1 11 -5 15 -5 3
-10 -1 -10 -10 0 -11 -5 -15 -14 -12 -8 3 -20 -2 -28 -10 -11 -15 -11 -16 5
-10 10 4 16 3 13 -2 -3 -5 -17 -8 -32 -8 -15 0 -21 3 -14 7 6 4 12 11 13 16 1
5 6 8 10 6 5 -1 6 2 2 7 -3 6 3 8 15 6 11 -2 20 0 20 5 0 5 -14 7 -32 6 -22
-2 -32 -8 -34 -22 -2 -10 -13 -27 -25 -36 -11 -10 -17 -18 -12 -18 5 0 14 5
21 12 9 9 12 9 12 -1 0 -7 6 -11 14 -8 20 8 28 -4 13 -21 -10 -13 -9 -14 3 -6
8 5 26 9 40 9 14 0 24 6 23 12 -3 15 38 8 47 -8 5 -7 9 -5 14 6 3 9 10 14 15
11 5 -4 12 -1 14 4 3 6 4 5 2 -2 -1 -7 -8 -12 -14 -10 -6 1 -11 -5 -11 -13 0
-12 4 -13 19 -6 10 6 21 8 24 5 9 -9 77 -10 78 -2 1 5 2 12 3 17 0 5 4 12 8
16 4 4 5 -8 3 -26 -3 -19 -1 -29 3 -24 9 13 56 39 49 28 -3 -5 4 -15 16 -23
20 -12 21 -12 8 4 -12 14 -12 16 4 9 15 -5 17 -3 12 13 -7 18 -6 18 7 2 15
-20 36 -24 36 -6 0 6 3 8 6 5 4 -4 1 -13 -6 -22 -8 -9 -8 -15 -2 -15 6 0 14 5
17 10 4 7 13 6 26 -1 15 -7 24 -7 34 1 12 10 13 8 10 -10 -2 -13 -1 -19 3 -16
4 4 7 13 7 18 0 6 6 13 14 16 8 3 11 0 7 -6 -6 -10 23 -26 32 -17 3 3 1 5 -5
5 -14 0 -12 28 3 34 8 3 11 0 8 -8 -3 -7 7 -21 22 -31 17 -11 23 -12 18 -4 -5
8 -9 21 -11 29 -1 12 1 11 11 -2 15 -20 31 -24 20 -5 -4 6 -4 9 1 5 4 -4 16
-3 26 3 15 7 19 7 17 -3 -2 -7 4 -11 12 -10 41 10 52 11 46 4 -4 -4 -13 -7
-19 -7 -5 0 -12 -7 -14 -15 -4 -12 -3 -12 5 -2 5 8 13 14 17 14 4 0 12 -6 16
-14 6 -9 9 -7 9 10 0 12 5 22 11 22 6 0 8 -10 5 -22 -3 -13 -3 -17 0 -10 5 10
9 10 22 0 13 -10 14 -11 8 0 -6 9 -1 11 17 8 21 -4 25 -1 22 15 -2 11 0 17 6
14 5 -4 7 -11 4 -16 -9 -14 29 -11 44 4 11 10 13 9 7 -1 -5 -7 -1 -12 9 -12
10 0 13 -5 9 -12 -4 -7 -4 -10 1 -6 4 4 14 3 22 -4 11 -9 13 -8 11 2 -4 17 23
20 35 5 5 -5 5 1 2 15 -3 14 -3 20 2 14 4 -6 16 -10 26 -8 9 1 15 -2 12 -6 -3
-5 -1 -12 5 -15 6 -4 9 -1 8 6 -2 6 3 14 11 17 8 2 11 0 8 -5 -3 -5 0 -10 8
-10 8 0 14 3 13 6 0 3 0 13 1 21 1 12 4 11 12 -3 6 -9 15 -15 20 -12 5 4 6 11
3 17 -4 5 5 2 20 -7 14 -9 23 -22 19 -29 -3 -6 -3 -8 2 -4 4 4 15 2 24 -4 13
-10 14 -10 4 2 -7 8 -13 18 -13 23 0 5 6 5 13 -1 6 -6 15 -11 20 -11 4 -1 8
-1 10 -2 20 -6 37 -5 37 2 0 5 7 9 16 9 8 0 12 4 9 10 -3 6 1 7 9 4 9 -3 14
-9 11 -13 -2 -4 2 -8 10 -8 8 0 12 4 9 8 -2 4 13 7 35 6 30 -1 38 -5 34 -17
-3 -10 -1 -9 7 3 6 9 8 22 4 29 -4 7 -3 8 5 4 6 -4 10 -14 9 -21 -2 -8 2 -14
7 -14 6 0 10 8 10 18 0 11 4 23 8 27 4 5 5 1 2 -8 -6 -15 8 -18 35 -8 3 1 8 2
13 1 4 0 7 4 7 10 0 5 5 7 11 3 8 -4 7 -9 -2 -15 -7 -4 -17 -5 -21 -3 -11 7
-10 -8 2 -26 8 -13 10 -12 10 3 0 10 4 16 9 12 5 -3 16 4 24 16 15 20 15 20
21 1 4 -11 14 -26 24 -33 14 -11 15 -11 5 1 -7 8 -13 21 -12 29 0 11 2 12 6 3
2 -6 10 -9 15 -6 6 4 8 2 5 -3 -9 -15 29 -23 42 -10 6 6 11 7 11 3 0 -5 8 -2
17 5 10 8 14 9 10 2 -4 -6 -2 -15 4 -19 7 -4 9 -3 5 4 -3 6 -2 13 4 17 5 3 10
1 10 -5 0 -6 5 -8 10 -5 8 5 8 11 0 20 -8 9 -8 15 0 20 6 4 10 3 9 -2 -4 -21
2 -24 19 -12 15 13 16 12 3 -3 -17 -23 -3 -23 28 -1 14 9 21 12 18 6 -4 -6 0
-14 9 -17 22 -8 26 -8 19 3 -3 5 0 13 6 17 8 4 9 3 5 -4 -4 -7 -2 -12 4 -12 6
0 8 -6 4 -13 -4 -6 1 -4 12 5 10 9 24 18 29 20 6 2 9 7 7 11 -1 5 2 6 8 2 6
-3 8 -11 5 -16 -4 -5 -1 -9 5 -9 6 0 8 -5 4 -12 -5 -7 -3 -8 5 -4 7 5 10 14 7
22 -6 15 7 27 18 17 7 -7 22 -11 64 -18 14 -2 20 1 15 8 -4 7 0 8 11 4 9 -4
15 -3 12 1 -2 4 2 16 10 27 8 10 14 14 14 8 0 -7 -4 -14 -10 -18 -5 -3 -6 -13
-3 -22 6 -15 7 -15 13 1 3 10 8 16 10 15 3 -1 15 3 28 10 30 16 13 40 -24 36
-13 -1 -22 0 -19 4 10 9 65 8 59 -1 -3 -4 2 -11 10 -14 18 -7 22 -25 5 -22 -6
2 -14 -3 -16 -10 -4 -11 -1 -12 16 -3 12 7 26 9 31 6 6 -3 7 1 4 9 -3 9 -10
16 -16 16 -5 0 -6 4 -3 10 4 6 -1 7 -11 3 -10 -4 -15 -2 -11 3 3 6 2 16 -4 24
-5 10 -9 10 -9 3 0 -14 -36 -9 -59 9 -14 12 -15 11 -2 -5 8 -10 9 -17 3 -17
-6 0 -13 4 -16 9 -9 14 -48 0 -42 -15 3 -7 0 -16 -6 -20 -7 -5 -8 -2 -3 6 5 9
2 10 -13 6 -15 -5 -9 5 19 32 l39 40 0 96 0 96 43 0 c29 0 51 7 72 24 l30 24
3 223 c3 207 2 224 -16 249 l-19 26 79 94 c43 52 84 105 91 117 7 12 31 49 54
82 31 46 40 68 37 88 -7 38 -9 40 -161 155 -73 56 -136 105 -139 109 -2 4 8
14 23 21 48 23 53 45 53 274 l0 212 -29 31 c-24 26 -36 31 -75 31 l-46 0 0
131 0 131 -31 29 -31 29 -902 -1 c-495 0 -911 -4 -922 -9z m1890 -2325 c3 -8
1 -15 -4 -15 -6 0 -10 7 -10 15 0 8 2 15 4 15 2 0 6 -7 10 -15z m-1884 -9 c0
-2 -7 -6 -15 -10 -8 -3 -15 -1 -15 4 0 6 7 10 15 10 8 0 15 -2 15 -4z m-67
-50 c4 -9 0 -13 -11 -11 -9 2 -21 4 -27 4 -5 1 -3 6 5 11 20 13 27 12 33 -4z
m150 -1 c4 -8 3 -16 -1 -19 -4 -3 -9 4 -9 15 -2 23 3 25 10 4z m1637 1 c0 -2
-7 -7 -16 -10 -8 -3 -12 -2 -9 4 6 10 25 14 25 6z m125 -14 c-3 -3 -11 0 -18
7 -9 10 -8 11 6 5 10 -3 15 -9 12 -12z m-325 4 c0 -2 -11 -11 -24 -20 -19 -12
-27 -13 -32 -3 -4 6 -4 9 1 5 4 -4 17 -1 29 7 21 16 26 18 26 11z m-1170 -12
c0 -8 -19 -13 -24 -6 -3 5 1 9 9 9 8 0 15 -2 15 -3z m324 -10 c3 -8 2 -12 -4
-9 -6 3 -10 10 -10 16 0 14 7 11 14 -7z m389 1 c-3 -9 -8 -14 -10 -11 -3 3 -2
9 2 15 9 16 15 13 8 -4z m38 1 c5 3 9 1 9 -4 0 -12 -26 -23 -33 -15 -3 3 -3
12 1 21 4 10 7 12 10 4 2 -7 8 -10 13 -6z m-311 -8 c0 -9 3 -9 12 0 15 15 28
15 28 0 0 -6 -3 -8 -7 -5 -3 4 -12 2 -18 -3 -9 -7 -16 -6 -25 5 -9 10 -9 15
-1 15 6 0 11 -5 11 -12z"/>
<path d="M114 168 c0 -10 1 -18 3 -18 1 0 7 8 12 18 7 13 6 19 -2 19 -7 0 -13
-9 -13 -19z"/>
<path d="M2223 124 c0 -7 6 -10 14 -7 7 3 13 8 13 12 0 4 -6 8 -13 8 -8 0 -14
-6 -14 -13z"/>
<path d="M256 113 c-6 -14 -5 -15 5 -6 7 7 10 15 7 18 -3 3 -9 -2 -12 -12z"/>
<path d="M2082 114 c10 -10 20 -16 22 -13 3 3 -5 11 -17 18 -21 13 -21 12 -5
-5z"/>
<path d="M540 100 c0 -5 5 -10 11 -10 5 0 7 5 4 10 -3 6 -8 10 -11 10 -2 0 -4
-4 -4 -10z"/>
<path d="M1681 87 c-13 -21 -12 -21 5 -5 10 10 16 20 13 22 -3 3 -11 -5 -18
-17z"/>
<path d="M1916 102 c-3 -5 1 -9 9 -9 8 0 12 4 9 9 -3 4 -7 8 -9 8 -2 0 -6 -4
-9 -8z"/>
<path d="M2010 98 c0 -4 4 -8 9 -8 6 0 12 4 15 8 3 5 -1 9 -9 9 -8 0 -15 -4
-15 -9z"/>
<path d="M813 87 c0 -8 6 -14 13 -14 7 0 10 6 7 14 -3 7 -8 13 -12 13 -4 0 -8
-6 -8 -13z"/>
<path d="M1246 87 c3 -10 9 -15 12 -12 3 3 0 11 -7 18 -10 9 -11 8 -5 -6z"/>
<path d="M1275 89 c-10 -15 3 -25 16 -12 7 7 7 13 1 17 -6 3 -14 1 -17 -5z"/>
<path d="M1603 85 c0 -8 4 -12 9 -9 5 3 6 10 3 15 -9 13 -12 11 -12 -6z"/>
<path d="M1510 79 c0 -5 5 -7 10 -4 6 3 10 8 10 11 0 2 -4 4 -10 4 -5 0 -10
-5 -10 -11z"/>
<path d="M1865 80 c-3 -6 1 -7 9 -4 18 7 21 14 7 14 -6 0 -13 -4 -16 -10z"/>
</g>
</svg>
